<mxfile host="app.diagrams.net" modified="2023-12-19T12:19:12.500Z" agent="Mozilla/5.0 (Windows NT 10.0; Win64; x64) AppleWebKit/537.36 (KHTML, like Gecko) Chrome/120.0.0.0 Safari/537.36" etag="CdLWeKOznMDB2T9fo9E0" version="22.1.11" type="device">
  <diagram name="Page-1" id="QSxSEcef5AFu9INZKdUs">
    <mxGraphModel dx="880" dy="1568" grid="1" gridSize="10" guides="1" tooltips="1" connect="1" arrows="1" fold="1" page="1" pageScale="1" pageWidth="850" pageHeight="1100" math="0" shadow="0">
      <root>
        <mxCell id="0" />
        <mxCell id="1" parent="0" />
        <mxCell id="6FEie-W7UXmFitEEROnA-33" value="" style="rounded=0;whiteSpace=wrap;html=1;" parent="1" vertex="1">
          <mxGeometry x="70" y="-30" width="680" height="760" as="geometry" />
        </mxCell>
        <mxCell id="6puwUVEsEw87pay2m3iK-3" value="" style="edgeStyle=orthogonalEdgeStyle;rounded=0;orthogonalLoop=1;jettySize=auto;html=1;" edge="1" parent="1" source="lfvt54emDJ42RaypE45g-1" target="6puwUVEsEw87pay2m3iK-2">
          <mxGeometry relative="1" as="geometry" />
        </mxCell>
        <mxCell id="lfvt54emDJ42RaypE45g-1" value="&lt;font style=&quot;font-size: 15px;&quot; face=&quot;Times New Roman&quot;&gt;Start&lt;/font&gt;" style="ellipse;whiteSpace=wrap;html=1;align=center;" parent="1" vertex="1">
          <mxGeometry x="355" width="130" height="80" as="geometry" />
        </mxCell>
        <mxCell id="lfvt54emDJ42RaypE45g-6" value="" style="edgeStyle=orthogonalEdgeStyle;rounded=0;orthogonalLoop=1;jettySize=auto;html=1;entryX=0.5;entryY=0;entryDx=0;entryDy=0;" parent="1" source="1f7XKs63wjkDiVfGLMMA-6" target="lfvt54emDJ42RaypE45g-19" edge="1">
          <mxGeometry relative="1" as="geometry">
            <mxPoint x="420.0999999999999" y="230" as="sourcePoint" />
            <mxPoint x="420" y="250" as="targetPoint" />
          </mxGeometry>
        </mxCell>
        <mxCell id="6FEie-W7UXmFitEEROnA-22" value="" style="edgeStyle=orthogonalEdgeStyle;rounded=0;orthogonalLoop=1;jettySize=auto;html=1;" parent="1" source="lfvt54emDJ42RaypE45g-19" target="Py34A5tgBrLusEjh5_gq-3" edge="1">
          <mxGeometry relative="1" as="geometry" />
        </mxCell>
        <mxCell id="1f7XKs63wjkDiVfGLMMA-2" style="edgeStyle=orthogonalEdgeStyle;rounded=0;orthogonalLoop=1;jettySize=auto;html=1;" parent="1" source="lfvt54emDJ42RaypE45g-19" target="1f7XKs63wjkDiVfGLMMA-1" edge="1">
          <mxGeometry relative="1" as="geometry" />
        </mxCell>
        <mxCell id="lfvt54emDJ42RaypE45g-19" value="&lt;font style=&quot;font-size: 15px;&quot; face=&quot;Times New Roman&quot;&gt;Get the Ap r data where the&lt;br&gt;&lt;font style=&quot;border-color: var(--border-color); font-size: 15px;&quot;&gt;Unique Id is approvalEngUnique&lt;/font&gt;&lt;span style=&quot;&quot;&gt;_id&amp;nbsp;&lt;/span&gt;&lt;/font&gt;" style="rounded=0;whiteSpace=wrap;html=1;" parent="1" vertex="1">
          <mxGeometry x="297.5" y="330" width="245" height="80" as="geometry" />
        </mxCell>
        <mxCell id="lfvt54emDJ42RaypE45g-43" value="&lt;font face=&quot;Times New Roman&quot;&gt;&lt;span style=&quot;font-size: 15px;&quot;&gt;End&lt;/span&gt;&lt;/font&gt;" style="ellipse;whiteSpace=wrap;html=1;align=center;" parent="1" vertex="1">
          <mxGeometry x="355" y="630" width="130" height="80" as="geometry" />
        </mxCell>
        <mxCell id="6FEie-W7UXmFitEEROnA-23" value="" style="edgeStyle=orthogonalEdgeStyle;rounded=0;orthogonalLoop=1;jettySize=auto;html=1;" parent="1" source="Py34A5tgBrLusEjh5_gq-3" target="lfvt54emDJ42RaypE45g-19" edge="1">
          <mxGeometry relative="1" as="geometry" />
        </mxCell>
        <mxCell id="Py34A5tgBrLusEjh5_gq-3" value="&lt;font face=&quot;Times New Roman&quot; style=&quot;font-size: 15px;&quot;&gt;Data Base&lt;/font&gt;" style="shape=cylinder3;whiteSpace=wrap;html=1;boundedLbl=1;backgroundOutline=1;size=15;" parent="1" vertex="1">
          <mxGeometry x="90" y="315" width="110" height="110" as="geometry" />
        </mxCell>
        <mxCell id="1f7XKs63wjkDiVfGLMMA-3" style="edgeStyle=orthogonalEdgeStyle;rounded=0;orthogonalLoop=1;jettySize=auto;html=1;" parent="1" source="1f7XKs63wjkDiVfGLMMA-1" target="Py34A5tgBrLusEjh5_gq-3" edge="1">
          <mxGeometry relative="1" as="geometry" />
        </mxCell>
        <mxCell id="1f7XKs63wjkDiVfGLMMA-4" style="edgeStyle=orthogonalEdgeStyle;rounded=0;orthogonalLoop=1;jettySize=auto;html=1;entryX=0.5;entryY=0;entryDx=0;entryDy=0;" parent="1" source="1f7XKs63wjkDiVfGLMMA-1" target="lfvt54emDJ42RaypE45g-43" edge="1">
          <mxGeometry relative="1" as="geometry" />
        </mxCell>
        <mxCell id="1f7XKs63wjkDiVfGLMMA-1" value="&lt;font style=&quot;font-size: 15px;&quot; face=&quot;Times New Roman&quot;&gt;Update the Approval request data where the&lt;br&gt;&lt;font style=&quot;border-color: var(--border-color); font-size: 15px;&quot;&gt;Actionby is Empid&lt;/font&gt;&lt;span style=&quot;&quot;&gt;&amp;nbsp;&lt;/span&gt;&lt;/font&gt;" style="rounded=0;whiteSpace=wrap;html=1;" parent="1" vertex="1">
          <mxGeometry x="315" y="470" width="210" height="120" as="geometry" />
        </mxCell>
        <mxCell id="1f7XKs63wjkDiVfGLMMA-12" value="" style="edgeStyle=orthogonalEdgeStyle;rounded=0;orthogonalLoop=1;jettySize=auto;html=1;" parent="1" source="1f7XKs63wjkDiVfGLMMA-6" target="1f7XKs63wjkDiVfGLMMA-10" edge="1">
          <mxGeometry relative="1" as="geometry" />
        </mxCell>
        <mxCell id="1f7XKs63wjkDiVfGLMMA-6" value="&lt;div style=&quot;border-color: var(--border-color); font-size: 15px;&quot;&gt;&lt;span style=&quot;font-family: &amp;quot;Times New Roman&amp;quot;; background-color: initial;&quot;&gt;Valid&lt;/span&gt;&lt;/div&gt;&lt;div style=&quot;border-color: var(--border-color); font-size: 15px;&quot;&gt;&lt;span style=&quot;font-family: &amp;quot;Times New Roman&amp;quot;; background-color: initial;&quot;&gt;&amp;nbsp;Request Body&lt;/span&gt;&lt;br&gt;&lt;/div&gt;&lt;div style=&quot;border-color: var(--border-color); font-size: 15px;&quot;&gt;&lt;font style=&quot;border-color: var(--border-color);&quot; face=&quot;Times New Roman&quot;&gt;(approvalEngUnique&lt;/font&gt;_id,&lt;/div&gt;&lt;div style=&quot;border-color: var(--border-color); font-size: 15px;&quot;&gt;Empid)&lt;/div&gt;" style="rhombus;whiteSpace=wrap;html=1;direction=west;" parent="1" vertex="1">
          <mxGeometry x="299.63" y="190" width="240.75" height="110" as="geometry" />
        </mxCell>
        <mxCell id="1f7XKs63wjkDiVfGLMMA-11" style="edgeStyle=orthogonalEdgeStyle;rounded=0;orthogonalLoop=1;jettySize=auto;html=1;entryX=1;entryY=0.5;entryDx=0;entryDy=0;" parent="1" source="1f7XKs63wjkDiVfGLMMA-10" target="lfvt54emDJ42RaypE45g-43" edge="1">
          <mxGeometry relative="1" as="geometry">
            <Array as="points">
              <mxPoint x="680" y="670" />
            </Array>
          </mxGeometry>
        </mxCell>
        <mxCell id="1f7XKs63wjkDiVfGLMMA-10" value="&lt;font face=&quot;Times New Roman&quot;&gt;&lt;span style=&quot;font-size: 15px;&quot;&gt;Return&lt;/span&gt;&lt;/font&gt;" style="rounded=0;whiteSpace=wrap;html=1;" parent="1" vertex="1">
          <mxGeometry x="610" y="220" width="110" height="50" as="geometry" />
        </mxCell>
        <mxCell id="1f7XKs63wjkDiVfGLMMA-13" value="Yes" style="text;html=1;strokeColor=none;fillColor=none;align=center;verticalAlign=middle;whiteSpace=wrap;rounded=0;" parent="1" vertex="1">
          <mxGeometry x="340" y="290" width="60" height="30" as="geometry" />
        </mxCell>
        <mxCell id="1f7XKs63wjkDiVfGLMMA-14" value="No" style="text;html=1;strokeColor=none;fillColor=none;align=center;verticalAlign=middle;whiteSpace=wrap;rounded=0;" parent="1" vertex="1">
          <mxGeometry x="540.38" y="220" width="60" height="30" as="geometry" />
        </mxCell>
        <mxCell id="6puwUVEsEw87pay2m3iK-4" value="" style="edgeStyle=orthogonalEdgeStyle;rounded=0;orthogonalLoop=1;jettySize=auto;html=1;" edge="1" parent="1" source="6puwUVEsEw87pay2m3iK-2" target="1f7XKs63wjkDiVfGLMMA-6">
          <mxGeometry relative="1" as="geometry" />
        </mxCell>
        <mxCell id="6puwUVEsEw87pay2m3iK-2" value="&lt;font style=&quot;font-size: 15px;&quot; face=&quot;Times New Roman&quot;&gt;Input request body&lt;/font&gt;" style="rounded=0;whiteSpace=wrap;html=1;" vertex="1" parent="1">
          <mxGeometry x="357.51" y="110" width="124.99" height="50" as="geometry" />
        </mxCell>
      </root>
    </mxGraphModel>
  </diagram>
</mxfile>
